<svg width="143" height="55" viewBox="0 0 143 55" fill="none" xmlns="http://www.w3.org/2000/svg">
<path d="M143 0H76V15H127L143 0Z" fill="white"/>
<path d="M123 35H100L116 20H134C134 20 137 20 139 22.5C141 25 141 27 141 27V48C141 48 141 50 138.5 52.5C136 55 134 55 134 55H74V39H123V35Z" fill="white"/>
<path d="M10 0H68V15H21C21 15 19.5 15 19.5 17C19.5 19 21 19 21 19H64C64 19 66 19 68.5 21.5C71 24 71 26 71 26V48C71 48 71 50 68.5 52.5C66 55 65 55 65 55H0V40H52C52 40 53.5 40 53.5 37C53.5 34 52 34 52 34H10C10 34 8 34 5 31.5C2 29 2 27 2 27V7C2 7 2 5 4.5 2.5C7 0 10 0 10 0Z" fill="white"/>
</svg>
